<?xml version="1.0" standalone="no"?><!DOCTYPE svg PUBLIC "-//W3C//DTD SVG 1.1//EN" "http://www.w3.org/Graphics/SVG/1.1/DTD/svg11.dtd"><svg height="1024" node-id="1" sillyvg="true" template-height="1024" template-width="1024" version="1.1" viewBox="0 0 1024 1024" width="1024" xmlns="http://www.w3.org/2000/svg" xmlns:xlink="http://www.w3.org/1999/xlink"><defs node-id="55"><clipPath id="master_svg0_28_028" node-id="3"><path d="M 0.00 0.00 L 1024.00 0.00 L 1024.00 1024.00 L 0.00 1024.00 Z" fill="#000000" fill-rule="nonzero" node-id="58" stroke="none" target-height="1024" target-width="1024" target-x="0" target-y="0"></path></clipPath></defs><g node-id="184"><g clip-path="url(#master_svg0_28_028)" group-id="1" id="sillyvg_g_1" node-id="64"><path d="M 122.37 981.64 L 82.92 981.64 C 72.65 981.64 63.95 974.08 62.52 963.92 L 52.66 894.03 L 152.63 894.03 L 142.77 963.92 C 141.34 974.08 132.64 981.64 122.37 981.64 Z M 941.08 981.64 L 901.63 981.64 C 891.36 981.64 882.66 974.08 881.23 963.92 L 871.37 894.03 L 971.34 894.03 L 961.48 963.92 C 960.05 974.08 951.35 981.64 941.08 981.64 Z" fill="#475a61" fill-rule="nonzero" group-id="1,2,23" node-id="70" stroke="none" target-height="87.612" target-width="918.686" target-x="52.656" target-y="894.0301"></path><path d="M 1024.00 753.24 L 1024.00 83.57 C 1024.00 60.81 1005.55 42.36 982.79 42.36 L 41.21 42.36 C 18.45 42.36 0.00 60.81 0.00 83.57 L 0.00 753.24 L 1024.00 753.24 Z" fill="#596d76" fill-rule="nonzero" group-id="1,3" node-id="76" stroke="none" target-height="710.884" target-width="1024" target-x="0" target-y="42.358017"></path><path d="M 944.68 83.57 L 944.68 753.24 L 1024.00 753.24 L 1024.00 83.57 C 1024.00 60.80 1005.56 42.36 982.79 42.36 L 903.47 42.36 C 926.22 42.36 944.68 60.80 944.68 83.57 Z" fill="#475a61" fill-rule="nonzero" group-id="1,4" node-id="81" stroke="none" target-height="710.886" target-width="120.53198" target-x="903.468" target-y="42.358017"></path><path d="M 1024.00 720.34 L 1024.00 868.52 C 1024.00 891.29 1005.56 909.73 982.79 909.73 L 41.21 909.73 C 18.44 909.73 0.00 891.29 0.00 868.52 L 0.00 720.34 L 1024.00 720.34 Z" fill="#f5f7f8" fill-rule="nonzero" group-id="1,5" node-id="86" stroke="none" target-height="189.39001" target-width="1024" target-x="0" target-y="720.3401"></path><path d="M 1024.00 720.34 L 1024.00 868.52 C 1024.00 891.29 1005.56 909.73 982.79 909.73 L 903.47 909.73 C 926.21 909.73 944.68 891.29 944.68 868.52 L 944.68 720.34 L 1024.00 720.34 Z" fill="#d9e7eb" fill-rule="nonzero" group-id="1,6" node-id="91" stroke="none" target-height="189.39001" target-width="120.53198" target-x="903.468" target-y="720.3401"></path><path d="M 896.36 817.93 C 896.36 840.86 877.77 859.44 854.84 859.44 C 831.91 859.44 813.33 840.86 813.33 817.93 C 813.33 795.00 831.91 776.41 854.84 776.41 C 877.77 776.41 896.36 795.00 896.36 817.93 Z" fill="#fb4a59" fill-rule="nonzero" group-id="1,7" node-id="96" stroke="none" target-height="83.03198" target-width="83.03198" target-x="813.3259" target-y="776.4121"></path><path d="M 896.36 817.92 C 896.36 840.85 877.78 859.44 854.84 859.44 C 848.83 859.44 843.10 858.16 837.93 855.83 C 852.41 849.36 862.51 834.81 862.51 817.92 C 862.51 801.03 852.41 786.48 837.93 780.01 C 843.25 777.62 849.01 776.39 854.84 776.40 C 877.78 776.40 896.36 795.01 896.36 817.92 Z" fill="#f82f40" fill-rule="nonzero" group-id="1,8" node-id="101" stroke="none" target-height="83.043335" target-width="58.432007" target-x="837.928" target-y="776.3925"></path><path d="M 744.74 817.92 C 744.74 834.76 731.10 848.37 714.29 848.37 L 425.98 848.37 C 417.57 848.37 409.97 844.97 404.45 839.45 C 398.72 833.75 395.51 826.00 395.53 817.92 C 395.53 801.11 409.17 787.47 425.98 787.47 L 714.29 787.47 C 722.69 787.47 730.32 790.89 735.82 796.39 C 741.53 802.10 744.74 809.84 744.74 817.92 Z" fill="#a0acb9" fill-rule="nonzero" group-id="1,9" node-id="106" stroke="none" target-height="60.904053" target-width="349.23267" target-x="395.51215" target-y="787.47003"></path><path d="M 491.95 787.47 L 522.86 787.47 L 522.86 848.37 L 491.95 848.37 L 491.95 787.47 Z M 617.41 787.47 L 648.31 787.47 L 648.31 848.37 L 617.41 848.37 L 617.41 787.47 Z" fill="#596d76" fill-rule="nonzero" group-id="1,10,24" node-id="113" stroke="none" target-height="60.90387" target-width="156.36203" target-x="491.95193" target-y="787.47003"></path><path d="M 127.64 847.73 C 119.11 847.74 112.19 840.82 112.19 832.28 L 112.19 803.58 C 112.19 795.04 119.11 788.12 127.64 788.12 C 136.18 788.12 143.09 795.04 143.09 803.58 L 143.09 832.28 C 143.09 840.82 136.18 847.73 127.64 847.73 Z M 183.75 847.73 C 175.22 847.74 168.30 840.82 168.30 832.28 L 168.30 803.58 C 168.30 795.04 175.22 788.12 183.75 788.12 C 192.29 788.12 199.21 795.04 199.21 803.58 L 199.21 832.28 C 199.21 840.82 192.29 847.73 183.75 847.73 Z M 239.87 847.73 C 231.33 847.74 224.42 840.82 224.42 832.28 L 224.42 803.58 C 224.42 795.04 231.33 788.12 239.87 788.12 C 248.40 788.12 255.32 795.04 255.32 803.58 L 255.32 832.28 C 255.32 840.82 248.40 847.73 239.87 847.73 Z" fill="#a0acb9" fill-rule="nonzero" group-id="1,11,25" node-id="121" stroke="none" target-height="59.612366" target-width="143.13" target-x="112.189964" target-y="788.1241"></path><path d="M 915.47 640.94 L 108.53 640.94 C 97.15 640.94 87.92 631.71 87.92 620.33 L 87.92 155.20 C 87.92 143.82 97.15 134.60 108.53 134.60 L 915.48 134.60 C 926.86 134.60 936.08 143.82 936.08 155.20 L 936.08 620.33 C 936.08 631.71 926.85 640.94 915.47 640.94 Z" fill="#72f4c3" fill-rule="nonzero" group-id="1,12" node-id="127" stroke="none" target-height="506.336" target-width="848.1581" target-x="87.92188" target-y="134.60008"></path><path d="M 936.08 155.20 L 936.08 620.33 C 936.08 631.70 926.85 640.93 915.48 640.93 L 852.72 640.93 C 864.10 640.93 873.33 631.70 873.33 620.33 L 873.33 155.20 C 873.33 143.83 864.10 134.60 852.72 134.60 L 915.48 134.60 C 926.85 134.60 936.08 143.83 936.08 155.20 Z" fill="#27e19d" fill-rule="nonzero" group-id="1,13" node-id="132" stroke="none" target-height="506.33398" target-width="83.362" target-x="852.7219" target-y="134.60008"></path><path d="M 936.08 155.20 L 936.08 270.56 L 87.92 270.56 L 87.92 155.20 C 87.92 143.83 97.15 134.60 108.52 134.60 L 915.48 134.60 C 926.85 134.60 936.08 143.83 936.08 155.20 Z" fill="#64b9fc" fill-rule="nonzero" group-id="1,14" node-id="137" stroke="none" target-height="135.964" target-width="848.168" target-x="87.91601" target-y="134.60008"></path><path d="M 936.08 155.20 L 936.08 270.56 L 873.33 270.56 L 873.33 155.20 C 873.33 143.83 864.10 134.60 852.72 134.60 L 915.48 134.60 C 926.85 134.60 936.08 143.83 936.08 155.20 Z" fill="#31a7fb" fill-rule="nonzero" group-id="1,15" node-id="142" stroke="none" target-height="135.964" target-width="83.362" target-x="852.7219" target-y="134.60008"></path><path d="M 313.08 218.04 L 169.71 218.04 C 161.17 218.05 154.24 211.13 154.24 202.59 C 154.24 194.05 161.17 187.13 169.71 187.13 L 313.08 187.13 C 321.61 187.13 328.53 194.05 328.53 202.59 C 328.53 211.12 321.61 218.04 313.08 218.04 Z M 854.84 218.04 L 456.44 218.04 C 447.90 218.05 440.98 211.13 440.98 202.59 C 440.98 194.05 447.90 187.13 456.44 187.13 L 854.84 187.13 C 863.38 187.13 870.29 194.05 870.29 202.59 C 870.29 211.12 863.38 218.04 854.84 218.04 Z" fill="#f5f7f8" fill-rule="nonzero" group-id="1,16" node-id="147" stroke="none" target-height="30.920654" target-width="716.05096" target-x="154.24292" target-y="187.12567"></path><path d="M 294.50 362.86 C 279.43 347.79 256.99 344.90 234.94 359.64 C 212.90 344.90 190.45 347.79 175.38 362.86 C 157.45 380.80 156.75 409.19 182.49 434.92 C 196.51 448.94 215.30 459.84 234.94 463.30 C 254.59 459.84 273.38 448.94 287.40 434.92 C 313.13 409.19 312.44 380.80 294.50 362.86 Z" fill="#fb4a59" fill-rule="nonzero" group-id="1,17" node-id="152" stroke="none" target-height="118.395966" target-width="156.37627" target-x="156.75395" target-y="344.9001"></path><path d="M 287.40 434.93 C 273.37 448.94 254.58 459.84 234.94 463.30 C 222.93 461.18 211.25 456.28 200.76 449.58 C 220.91 445.87 240.16 434.64 254.56 420.26 C 279.20 395.62 280.48 368.63 265.89 350.00 C 276.71 350.44 286.62 354.97 294.51 362.86 C 312.43 380.80 313.13 409.20 287.40 434.93 Z" fill="#f82f40" fill-rule="nonzero" group-id="1,18" node-id="157" stroke="none" target-height="113.29797" target-width="112.37201" target-x="200.76196" target-y="350.00415"></path><path d="M 523.25 488.45 C 517.00 488.44 511.36 484.67 508.97 478.89 L 464.96 372.37 L 450.56 407.77 C 448.19 413.59 442.53 417.40 436.24 417.40 L 358.29 417.40 C 349.76 417.40 342.84 410.48 342.84 401.95 C 342.84 393.41 349.76 386.50 358.29 386.50 L 425.85 386.50 L 450.53 325.82 C 452.90 320.01 458.53 316.21 464.80 316.19 L 464.85 316.19 C 471.10 316.19 476.74 319.96 479.13 325.74 L 524.39 435.27 L 562.72 356.30 C 565.26 351.07 570.51 347.71 576.32 347.59 C 582.12 347.48 587.50 350.63 590.25 355.74 L 604.59 382.51 L 648.68 382.51 C 657.22 382.51 664.13 389.43 664.13 397.96 C 664.13 406.50 657.22 413.42 648.68 413.42 L 595.33 413.42 C 589.64 413.42 584.40 410.28 581.71 405.26 L 577.30 397.03 L 537.16 479.74 C 534.57 485.06 529.17 488.44 523.25 488.45 Z" fill="#26d192" fill-rule="nonzero" group-id="1,19" node-id="162" stroke="none" target-height="172.258" target-width="321.292" target-x="342.84204" target-y="316.188"></path><path d="M 720.71 465.91 L 739.68 465.91 C 758.89 465.91 774.52 450.28 774.52 431.06 L 774.52 418.28 C 774.53 411.37 772.47 404.62 768.61 398.89 C 772.47 393.16 774.53 386.41 774.52 379.50 L 774.52 366.71 C 774.52 347.50 758.89 331.87 739.68 331.87 L 720.71 331.87 C 701.50 331.87 685.87 347.50 685.87 366.71 L 685.87 379.50 C 685.86 386.41 687.92 393.16 691.78 398.89 C 687.92 404.62 685.86 411.37 685.87 418.28 L 685.87 431.06 C 685.87 450.28 701.50 465.91 720.71 465.91 Z M 743.61 431.06 C 743.61 433.24 741.85 435.00 739.68 435.00 L 720.71 435.00 C 718.54 435.00 716.77 433.24 716.77 431.06 L 716.77 418.28 C 716.77 416.11 718.54 414.34 720.71 414.34 L 739.68 414.34 C 741.85 414.34 743.61 416.10 743.61 418.28 L 743.61 431.06 Z M 716.77 366.71 C 716.77 364.54 718.54 362.78 720.71 362.78 L 739.68 362.78 C 741.85 362.78 743.61 364.54 743.61 366.71 L 743.61 379.50 C 743.61 381.67 741.85 383.44 739.68 383.44 L 720.71 383.44 C 718.54 383.43 716.77 381.67 716.77 379.50 L 716.77 366.71 Z M 842.14 331.87 L 823.17 331.87 C 803.96 331.87 788.33 347.50 788.33 366.71 L 788.33 431.06 C 788.33 450.28 803.96 465.91 823.17 465.91 L 842.14 465.91 C 861.35 465.91 876.98 450.28 876.98 431.06 L 876.98 366.71 C 876.98 347.50 861.35 331.87 842.14 331.87 Z M 846.08 431.06 C 846.08 433.24 844.31 435.00 842.14 435.00 L 823.17 435.00 C 821.00 435.00 819.24 433.24 819.24 431.06 L 819.24 366.71 C 819.24 364.54 821.00 362.78 823.17 362.78 L 842.14 362.78 C 844.31 362.78 846.08 364.54 846.08 366.71 L 846.08 431.06 Z" fill="#fb9927" fill-rule="nonzero" group-id="1,20" node-id="167" stroke="none" target-height="134.03601" target-width="191.12506" target-x="685.8588" target-y="331.87012"></path><path d="M 861.53 512.67 L 832.66 512.67 C 824.22 512.81 817.45 519.69 817.45 528.13 C 817.45 536.57 824.22 543.44 832.66 543.58 L 861.53 543.57 C 869.97 543.44 876.74 536.56 876.74 528.12 C 876.74 519.68 869.97 512.80 861.53 512.67 Z M 861.53 561.88 L 693.40 561.88 C 684.97 562.02 678.20 568.90 678.20 577.34 C 678.20 585.77 684.97 592.65 693.40 592.79 L 861.53 592.79 C 869.97 592.65 876.74 585.77 876.74 577.33 C 876.74 568.90 869.97 562.02 861.53 561.88 Z" fill="#596d76" fill-rule="nonzero" group-id="1,21,26" node-id="174" stroke="none" target-height="80.11798" target-width="198.53998" target-x="678.19684" target-y="512.67"></path><path d="M 229.03 545.46 L 162.47 545.46 C 153.93 545.46 147.02 538.54 147.02 530.01 C 147.02 521.48 153.93 514.56 162.47 514.56 L 229.03 514.56 C 237.57 514.56 244.48 521.48 244.48 530.01 C 244.48 538.54 237.57 545.46 229.03 545.46 Z M 229.03 592.79 L 162.47 592.79 C 153.93 592.79 147.02 585.87 147.02 577.33 C 147.02 568.80 153.93 561.88 162.47 561.88 L 229.03 561.88 C 237.57 561.88 244.48 568.80 244.48 577.33 C 244.48 585.87 237.57 592.79 229.03 592.79 Z" fill="#f5f7f8" fill-rule="nonzero" group-id="1,22,27" node-id="182" stroke="none" target-height="78.22815" target-width="97.46599" target-x="147.01605" target-y="514.558"></path></g></g></svg>