<?xml version="1.0" standalone="no"?><!DOCTYPE svg PUBLIC "-//W3C//DTD SVG 1.1//EN" "http://www.w3.org/Graphics/SVG/1.1/DTD/svg11.dtd"><svg t="1756544083865" class="icon" viewBox="0 0 1024 1024" version="1.1" xmlns="http://www.w3.org/2000/svg" p-id="21006" xmlns:xlink="http://www.w3.org/1999/xlink" width="200" height="200"><path d="M704 608H320a256 256 0 0 0-256 256v64a64 64 0 0 0 64 64h768a64 64 0 0 0 64-64v-64a256 256 0 0 0-256-256zM512 544a256 256 0 0 0 164.48-448A583.04 583.04 0 0 1 256 320a256 256 0 0 0 256 224z" p-id="21007"></path><path d="M623.36 58.24A256 256 0 0 0 259.2 256 519.04 519.04 0 0 0 623.36 58.24z" p-id="21008"></path></svg>