<?xml version="1.0" standalone="no"?><!DOCTYPE svg PUBLIC "-//W3C//DTD SVG 1.1//EN" "http://www.w3.org/Graphics/SVG/1.1/DTD/svg11.dtd"><svg t="1756563102713" class="icon" viewBox="0 0 1024 1024" version="1.1" xmlns="http://www.w3.org/2000/svg" p-id="11024" xmlns:xlink="http://www.w3.org/1999/xlink" width="200" height="200"><path d="M160 64m96 0l512 0q96 0 96 96l0 704q0 96-96 96l-512 0q-96 0-96-96l0-704q0-96 96-96Z" fill="#3F86FF" p-id="11025"></path><path d="M160 320h704v64H160z" fill="#FFFFFF" opacity=".75" p-id="11026"></path><path d="M160 640h704v64H160z" fill="#FFFFFF" opacity=".75" p-id="11027"></path><path d="M736 160H544a32 32 0 1 0 0 64h192a32 32 0 1 0 0-64z" fill="#FFFFFF" opacity=".75" p-id="11028"></path><path d="M288 192m-32 0a32 32 0 1 0 64 0 32 32 0 1 0-64 0Z" fill="#FFFFFF" opacity=".75" p-id="11029"></path><path d="M416 192m-32 0a32 32 0 1 0 64 0 32 32 0 1 0-64 0Z" fill="#FFFFFF" opacity=".75" p-id="11030"></path><path d="M736 544H544a32 32 0 1 1 0-64h192a32 32 0 0 1 0 64z" fill="#FFFFFF" p-id="11031"></path><path d="M288 512m-32 0a32 32 0 1 0 64 0 32 32 0 1 0-64 0Z" fill="#FFFFFF" p-id="11032"></path><path d="M416 512m-32 0a32 32 0 1 0 64 0 32 32 0 1 0-64 0Z" fill="#FFFFFF" p-id="11033"></path><path d="M736 864H544a32 32 0 0 1 0-64h192a32 32 0 0 1 0 64z" fill="#FFFFFF" opacity=".75" p-id="11034"></path><path d="M288 832m-32 0a32 32 0 1 0 64 0 32 32 0 1 0-64 0Z" fill="#FFFFFF" opacity=".75" p-id="11035"></path><path d="M416 832m-32 0a32 32 0 1 0 64 0 32 32 0 1 0-64 0Z" fill="#FFFFFF" opacity=".75" p-id="11036"></path></svg>