<?xml version="1.0" standalone="no"?><!DOCTYPE svg PUBLIC "-//W3C//DTD SVG 1.1//EN" "http://www.w3.org/Graphics/SVG/1.1/DTD/svg11.dtd"><svg t="1756542109247" class="icon" viewBox="0 0 1024 1024" version="1.1" xmlns="http://www.w3.org/2000/svg" p-id="5039" xmlns:xlink="http://www.w3.org/1999/xlink" width="200" height="200"><path d="M842.8 190.1h-63V110c0-16.6-13.4-30-30-30.2h-2.2c-16.7 0-30.2 13.6-30.2 30.3v80.1H309.7V110c0-16.7-13.5-30.2-30.2-30.3h-2.2c-16.7 0-30.3 13.5-30.3 30.3v80.1h-65.8c-55.5 0-100.4 44.9-100.6 100.4v553.3c0.1 55.5 45.1 100.4 100.6 100.4h661.5c55.5-0.1 100.4-45 100.5-100.5V290.6c0-55.5-44.9-100.4-100.4-100.5z m-85.9 382.5L481.2 848.3c-7.8 7.7-18.3 12.1-29.3 12.3-10.6 0-20.7-4.2-28.2-11.7L274.3 699.7c-14.5-15.7-14-40.1 1.1-55.3 15.1-15.1 39.5-15.6 55.3-1.1l121.4 121.4 248.4-248.5c15.7-14.5 40.1-14 55.3 1.1 15.1 15.2 15.5 39.6 1.1 55.3z m115.4-161.1H153.4V272.8h718.9v138.7z m0 0" fill="#2c2c2c" p-id="5040"></path></svg>