<?xml version="1.0" standalone="no"?><!DOCTYPE svg PUBLIC "-//W3C//DTD SVG 1.1//EN" "http://www.w3.org/Graphics/SVG/1.1/DTD/svg11.dtd"><svg t="1756542147041" class="icon" viewBox="0 0 1024 1024" version="1.1" xmlns="http://www.w3.org/2000/svg" p-id="6017" xmlns:xlink="http://www.w3.org/1999/xlink" width="200" height="200"><path d="M895.159 826.815c80.135-87.746 128.701-203.171 128.701-329.688C1023.86 222.557 794.683 0 511.99 0 229.33 0 0.12 222.557 0.12 497.127s229.211 497.16 511.87 497.16c66.654 0 130.237-12.354 188.632-34.88 30.341-11.672 166.858 79.214 193.991 62.389 40.272-24.915-30.99-160.51 0.546-194.98zM249.297 578.218c-37.679 0-68.258-29.659-68.258-66.28s30.58-66.278 68.258-66.278 68.259 29.692 68.259 66.279-30.546 66.279-68.259 66.279z m262.693 0c-37.679 0-68.259-29.659-68.259-66.28s30.58-66.278 68.259-66.278c37.713 0 68.258 29.692 68.258 66.279s-30.545 66.279-68.258 66.279z m268.768 0c-37.679 0-68.259-29.659-68.259-66.28s30.58-66.278 68.259-66.278c37.713 0 68.258 29.692 68.258 66.279s-30.545 66.279-68.258 66.279z" p-id="6018"></path></svg>