<?xml version="1.0" standalone="no"?><!DOCTYPE svg PUBLIC "-//W3C//DTD SVG 1.1//EN" "http://www.w3.org/Graphics/SVG/1.1/DTD/svg11.dtd"><svg t="1756542217945" class="icon" viewBox="0 0 1024 1024" version="1.1" xmlns="http://www.w3.org/2000/svg" p-id="10157" xmlns:xlink="http://www.w3.org/1999/xlink" width="200" height="200"><path d="M856.77 575.12H727.26l-102.4-96.38c15.87-17.86 27.82-38.33 34.13-61.41a30 30 0 0 0-28.85-38 30.08 30.08 0 0 0-29.13 23c-9.77 39.45-44.39 67.32-87.58 67.33a90.17 90.17 0 0 1-90.36-90.35c0-43.19 27.85-77.8 67.3-87.59a30.13 30.13 0 0 0 23-29.17c0-19.56-18.46-34-37.38-29.07a142.86 142.86 0 0 0-65 37.4L293.56 153.47H161.05a30.12 30.12 0 0 0-30.12 30.12 30.12 30.12 0 0 0 30.12 30.12h108.42l108.42 108.42c-9 18.07-12 39.15-12 57.22 0 84.33 66.26 150.59 150.59 150.59a139.92 139.92 0 0 0 63.24-15.06l120.43 120.47h156.62a30.11 30.11 0 0 0 30.11-30.12 30.11 30.11 0 0 0-30.11-30.11zM161.05 424.53h90.35a30.12 30.12 0 0 0 30.12-30.12 30.13 30.13 0 0 0-30.12-30.12h-90.35a30.13 30.13 0 0 0-30.12 30.12 30.12 30.12 0 0 0 30.12 30.12zM281.52 575.12H161.05a30.12 30.12 0 0 0-30.12 30.12 30.12 30.12 0 0 0 30.12 30.11h120.47a30.12 30.12 0 0 0 30.12-30.11 30.12 30.12 0 0 0-30.12-30.12z" p-id="10158"></path><path d="M861.72 163.42H684l-63.24 63.25c-6-3-12-3-15.06-3A60.24 60.24 0 1 0 666 283.9c0-6 0-9-3-15.06l45.18-45.18h153.6a30.11 30.11 0 0 0 30.11-30.12 30.12 30.12 0 0 0-30.17-30.12z" p-id="10159"></path><path d="M922 33H102A102.12 102.12 0 0 0 0 135v538a102.12 102.12 0 0 0 102 102h254v114H126a34 34 0 0 0-34 34 34 34 0 0 0 34 34h772a34 34 0 0 0 34-34 34 34 0 0 0-34-34H668V775h254a102.12 102.12 0 0 0 102-102V135A102.12 102.12 0 0 0 922 33zM600 889H424V775h176z m356-216a34 34 0 0 1-34 34H102a34 34 0 0 1-34-34V135a34 34 0 0 1 34-34h820a34 34 0 0 1 34 34z" p-id="10160"></path></svg>