<?xml version="1.0" standalone="no"?><!DOCTYPE svg PUBLIC "-//W3C//DTD SVG 1.1//EN" "http://www.w3.org/Graphics/SVG/1.1/DTD/svg11.dtd"><svg t="1756729345942" class="icon" viewBox="0 0 1024 1024" version="1.1" xmlns="http://www.w3.org/2000/svg" p-id="5986" xmlns:xlink="http://www.w3.org/1999/xlink" width="200" height="200"><path d="M512 200.533333C388.266667 200.533333 290.133333 298.666667 290.133333 422.4s98.133333 221.866667 221.866667 221.866667 221.866667-98.133333 221.866667-221.866667-98.133333-221.866667-221.866667-221.866667z m0 388.266667c-89.6 0-166.4-72.533333-166.4-166.4S422.4 260.266667 512 260.266667s166.4 72.533333 166.4 166.4-76.8 162.133333-166.4 162.133333z" fill="#333333" p-id="5987"></path><path d="M541.866667 413.866667V307.2c0-17.066667-12.8-29.866667-29.866667-29.866667s-29.866667 12.8-29.866667 29.866667V426.666667c0 8.533333 4.266667 17.066667 8.533334 21.333333l59.733333 59.733333c4.266667 4.266667 12.8 8.533333 21.333333 8.533334s12.8-4.266667 21.333334-8.533334c12.8-12.8 12.8-29.866667 0-42.666666l-51.2-51.2z" fill="#333333" p-id="5988"></path><path d="M955.733333 136.533333c4.266667-72.533333-51.2-132.266667-123.733333-136.533333H187.733333c-72.533333 4.266667-128 68.266667-123.733333 136.533333v695.466667c0 12.8 4.266667 25.6 12.8 29.866667L213.333333 1011.2c4.266667 4.266667 8.533333 8.533333 17.066667 8.533333l12.8 4.266667h8.533333c4.266667 0 4.266667 0 8.533334-4.266667 0 0 4.266667 0 4.266666-4.266666 0 0 4.266667 0 4.266667-4.266667L375.466667 896l102.4 110.933333c4.266667 4.266667 8.533333 8.533333 17.066666 8.533334H520.533333c4.266667 0 4.266667 0 8.533334-4.266667 0 0 4.266667 0 4.266666-4.266667 0 0 4.266667 0 4.266667-4.266666l106.666667-119.466667 102.4 110.933333c4.266667 4.266667 8.533333 8.533333 17.066666 12.8h21.333334c4.266667 0 4.266667 0 8.533333-4.266666 0 0 4.266667 0 4.266667-4.266667 0 0 4.266667 0 8.533333-4.266667l128-145.066666 4.266667-4.266667c4.266667-4.266667 8.533333-8.533333 8.533333-12.8v-4.266667-8.533333l8.533333-682.666667zM384 789.333333h-8.533333-12.8c-4.266667 0-8.533333 4.266667-12.8 4.266667-4.266667 0-4.266667 4.266667-8.533334 4.266667l-102.4 115.2L145.066667 810.666667V128c4.266667-17.066667 21.333333-42.666667 42.666666-42.666667h644.266667c25.6 4.266667 42.666667 25.6 42.666667 55.466667V810.666667l-93.866667 102.4-102.4-110.933334-8.533333-8.533333c-4.266667-4.266667-8.533333-4.266667-12.8-8.533333h-8.533334H635.733333c-4.266667 0-8.533333 4.266667-12.8 4.266666l-4.266666 4.266667-106.666667 123.733333-102.4-110.933333-4.266667-4.266667c-4.266667-4.266667-8.533333-4.266667-12.8-8.533333h-4.266666l-4.266667-4.266667z m-25.6 25.6z m29.866667-4.266666z m392.533333 192z m157.866667-170.666667z" fill="#333333" p-id="5989"></path></svg>