<?xml version="1.0" standalone="no"?><!DOCTYPE svg PUBLIC "-//W3C//DTD SVG 1.1//EN" "http://www.w3.org/Graphics/SVG/1.1/DTD/svg11.dtd"><svg t="1756542180130" class="icon" viewBox="0 0 1024 1024" version="1.1" xmlns="http://www.w3.org/2000/svg" p-id="8068" xmlns:xlink="http://www.w3.org/1999/xlink" width="200" height="200"><path d="M431.9 1016.2H85.3c-44.9 0-81.5-36.5-81.5-81.5V96.9c0-44.9 36.5-81.5 81.5-81.5H737c44.9 0 81.5 36.5 81.5 81.5v225c0 19.3-15.6 34.9-34.9 34.9-19.3 0-34.9-15.6-34.9-34.9v-225c0-6.3-5.3-11.6-11.6-11.6H85.3c-6.3 0-11.6 5.3-11.6 11.6v837.8c0 6.3 5.3 11.6 11.6 11.6h346.6c19.3 0 34.9 15.6 34.9 34.9s-15.6 35-34.9 35z" p-id="8069"></path><path d="M612.3 303.3H170.1c-19.2 0-34.9-15.7-34.9-34.9s15.7-34.9 34.9-34.9h442.2c19.2 0 34.9 15.7 34.9 34.9s-15.7 34.9-34.9 34.9zM426.1 519.8h-256c-19.2 0-34.9-15.7-34.9-34.9s15.7-34.9 34.9-34.9h256c19.2 0 34.9 15.7 34.9 34.9 0 19.1-15.7 34.9-34.9 34.9zM286.5 736.3H170.1c-19.2 0-34.9-15.7-34.9-34.9s15.7-34.9 34.9-34.9h116.4c19.2 0 34.9 15.7 34.9 34.9 0 19.1-15.7 34.9-34.9 34.9zM732.4 1012.8c-77.7 0-150.8-30.3-205.7-85.2s-85.2-128-85.2-205.7 30.3-150.8 85.2-205.7 128-85.2 205.7-85.2 150.8 30.3 205.7 85.2 85.2 128 85.2 205.7-30.3 150.8-85.2 205.7-128 85.2-205.7 85.2z m0-512c-59.1 0-114.6 23-156.3 64.8s-64.8 97.3-64.8 156.3 23 114.6 64.8 156.3S673.3 943 732.4 943s114.6-23 156.3-64.8 64.8-97.3 64.8-156.3-23-114.6-64.8-156.3-97.2-64.8-156.3-64.8z" p-id="8070"></path><path d="M824.2 729h-82.1V601c0-19.2-15.7-34.9-34.9-34.9s-34.9 15.7-34.9 34.9v162.9c0 19.2 15.7 34.9 34.9 34.9h117c19.2 0 34.9-15.7 34.9-34.9 0.1-19.2-15.7-34.9-34.9-34.9z" p-id="8071"></path></svg>